<?xml version="1.0" standalone="no"?><!DOCTYPE svg PUBLIC "-//W3C//DTD SVG 1.1//EN" "http://www.w3.org/Graphics/SVG/1.1/DTD/svg11.dtd"><svg t="1702211391837" class="icon" viewBox="0 0 1024 1024" version="1.1" xmlns="http://www.w3.org/2000/svg" p-id="19466" xmlns:xlink="http://www.w3.org/1999/xlink" width="200" height="200"><path d="M527.519973 47.307446c-247.272733 0-447.724091 200.452381-447.724091 447.724091 0 247.272733 200.452381 447.724091 447.724091 447.724091 247.27171 0 447.723068-200.453405 447.723068-447.724091C975.244065 247.76085 774.791683 47.307446 527.519973 47.307446zM395.513474 239.706407c32.745798-27.629267 105.400538 30.699186 130.983193 28.652574 25.582655 2.046612 98.237395-56.281841 130.983193-28.652574s-39.653115 90.786703-39.653115 90.786703L435.150216 330.49311C435.150216 330.49311 362.767676 267.335674 395.513474 239.706407zM624.734062 363.238908c0 9.05012-7.322779 16.372899-16.372899 16.372899l-163.728992 0c-9.051143 0-16.372899-7.322779-16.372899-16.372899 0-9.05012 7.321756-16.372899 16.372899-16.372899l163.728992 0C617.411283 346.866009 624.734062 354.188788 624.734062 363.238908zM526.496667 755.836471c-126.603443 0-229.220588 11.416004-229.220588-95.67913 0-79.626525 56.761772-205.01428 137.874137-264.173658l182.677553 0c81.127715 59.160401 137.89051 184.547133 137.89051 264.173658C755.717256 767.253498 653.099087 755.836471 526.496667 755.836471z" fill="#5DB646" p-id="19467"></path><path d="M529.011954 515.76986c7.240915 0 12.892635 2.263553 16.987906 6.765077 4.094248 4.501524 6.15928 10.979052 6.15928 19.408025l45.446052 0c0-14.20656-4.839215-25.6461-14.481829-34.387181-9.644661-8.741082-22.942525-14.086833-39.860846-16.060791L543.262516 467.00625 519.809361 467.00625l0 24.031323c-17.698081 1.443885-31.707143 6.238075-42.061978 14.400988s-15.532765 18.58938-15.532765 31.253818c0 13.967106 5.110391 24.708751 15.362896 32.218796 10.254551 7.514137 26.158776 14.233166 47.713698 20.156062 9.91379 3.730974 16.784268 7.465019 20.609387 11.222599 3.821025 3.75451 5.750981 8.860808 5.750981 15.313777 0 6.309706-1.860371 11.342326-5.649674 15.145955-3.789303 3.781116-9.644661 5.686513-17.630542 5.686513-8.593725 0-15.498996-2.14485-20.609387-6.381337-5.110391-4.240581-7.68196-11.342326-7.68196-21.288862l-44.329625 0-0.338714 0.578168c-0.440022 16.156982 5.110391 28.415167 16.650215 36.772508 11.538801 8.354272 26.39516 13.241582 44.497447 14.688537l0 22.419616 23.617907 0 0-22.539342c17.701151-1.444908 31.642674-6.069229 41.827641-13.942547 10.184967-7.874341 15.293311-18.325367 15.293311-31.375591 0-13.895475-5.245468-24.77936-15.70161-32.679283-10.456143-7.897877-26.15673-14.56881-47.070039-20.034289-10.455119-4.164856-17.528212-8.040117-21.183462-11.606339-3.653203-3.563152-5.479805-8.308223-5.514597-14.20656 0-6.382361 1.658779-11.489682 4.940522-15.316847C516.052804 517.696746 521.467117 515.76986 529.011954 515.76986z" fill="#5DB646" p-id="19468"></path></svg>