<?xml version="1.0" standalone="no"?><!DOCTYPE svg PUBLIC "-//W3C//DTD SVG 1.1//EN" "http://www.w3.org/Graphics/SVG/1.1/DTD/svg11.dtd"><svg class="icon" width="200px" height="200.00px" viewBox="0 0 1024 1024" version="1.1" xmlns="http://www.w3.org/2000/svg"><path d="M0 512a512 512 0 1 0 1024 0A512 512 0 1 0 0 512z" fill="#FCEA10" /><path d="M121.905 512a390.095 390.095 0 1 0 780.19 0 390.095 390.095 0 1 0-780.19 0z" fill="#FD9F13" /><path d="M650.971 521.752c-21.942-21.942-68.266-48.762-131.657-68.266-36.571-12.19-58.514-21.943-58.514-48.762 0-39.01 24.381-48.762 56.076-48.762 24.381 0 60.953 29.257 60.953 53.638l95.085-21.943c0-19.505-14.628-48.762-41.447-73.143-21.943-19.504-51.2-29.257-85.334-34.133v-51.2h-63.39v51.2c-36.572 4.876-63.39 17.067-85.333 36.571-21.943 19.505-36.572 51.2-36.572 82.896 0 36.571 4.876 68.266 26.82 90.21 19.504 21.942 95.085 48.761 131.656 56.075 36.572 7.315 68.267 29.257 68.267 60.953 0 36.571-34.133 51.2-63.39 51.2-48.762 0-80.458-36.572-80.458-68.267L346.21 614.4c7.314 34.133 14.628 60.952 46.323 85.333 24.381 19.505 51.2 31.696 90.21 36.572v60.952h63.39v-60.952c36.572-2.438 68.267-17.067 92.648-36.572 29.257-21.943 46.324-51.2 46.324-92.647-2.438-34.134-12.19-63.39-34.134-85.334z m0 0" fill="#FCEA10" /></svg>