<?xml version="1.0" standalone="no"?><!DOCTYPE svg PUBLIC "-//W3C//DTD SVG 1.1//EN" "http://www.w3.org/Graphics/SVG/1.1/DTD/svg11.dtd"><svg class="icon" width="200px" height="200.00px" viewBox="0 0 1024 1024" version="1.1" xmlns="http://www.w3.org/2000/svg"><path d="M512.000683 0.000683c-67.925288 0-133.188178 12.970658-195.925203 38.98024a507.391662 507.391662 0 0 0-166.092689 111.001526A506.879662 506.879662 0 0 0 38.981265 316.075139 507.118595 507.118595 0 0 0 0.001024 512.000341c0 67.925288 12.970658 133.188178 38.980241 195.925203a506.879662 506.879662 0 0 0 111.001526 166.092689 507.357528 507.357528 0 0 0 166.092689 111.001526C378.812505 1011.029342 444.075395 1024 512.000683 1024c67.925288 0 133.188178-12.970658 195.925202-38.980241a507.357528 507.357528 0 0 0 166.09269-111.001526 506.811395 506.811395 0 0 0 111.001526-166.092689A507.118595 507.118595 0 0 0 1024.000341 512.000341c0-67.925288-12.970658-133.188178-38.98024-195.925202a506.845529 506.845529 0 0 0-111.001526-166.09269 507.391662 507.391662 0 0 0-166.09269-111.001526A507.391662 507.391662 0 0 0 512.000683 0.000683m162.952424 674.91795h-325.904849v-325.836583h325.904849v325.836583z" fill="#EEA700" /><path d="M512.000683 66.765438c-59.050627 0-115.848456 11.298126-170.393487 33.894378a441.411972 441.411972 0 0 0-144.418037 96.494869 441.002373 441.002373 0 0 0-96.529002 144.45217A441.241306 441.241306 0 0 0 66.799913 512.000341c0 59.050627 11.263992 115.814323 33.860244 170.359353a441.002373 441.002373 0 0 0 96.529002 144.452171 440.899973 440.899973 0 0 0 144.418037 96.494869c54.54503 22.596252 111.376992 33.894377 170.393487 33.894377 59.050627 0 115.848456-11.298126 170.393486-33.894377a440.865839 440.865839 0 0 0 144.418037-96.494869 441.002373 441.002373 0 0 0 96.529002-144.452171c22.562118-54.54503 33.894377-111.308726 33.894378-170.359353 0-59.050627-11.332259-115.848456-33.894378-170.393486a441.002373 441.002373 0 0 0-96.529002-144.45217 441.343706 441.343706 0 0 0-144.418037-96.494869A440.934106 440.934106 0 0 0 512.000683 66.765438m141.584972 586.819876h-283.169945v-283.169945h283.169945v283.169945z" fill="#FFD356" /><path d="M486.844433 224.154133l-25.599983 8.021328v59.221294c0 10.683726-2.013865 16.486389-8.021328 19.558387a58.367961 58.367961 0 0 1-29.354647 4.232531 80.452213 80.452213 0 0 0-6.041596-20.036254h19.59252l4.027731-56.934362-24.063984 6.655996-4.676264-20.036254c8.021328-2.013865 17.817588-4.915197 28.740248-8.021328V172.305634h-25.599983V154.283246h25.599983V111.275275h19.79732v43.007971h25.838916v19.114654h-25.838916v38.741308l22.254918-6.655996 3.345065 18.670921m124.65485-102.399932v8.260262c-2.218665 48.298634-4.43733 66.764755-10.239993 73.898617a18.568521 18.568521 0 0 1-14.677324 7.338662 230.058513 230.058513 0 0 1-25.395183 0 46.626102 46.626102 0 0 0-5.802663-19.59252h22.289052a7.748262 7.748262 0 0 0 7.099729-2.457599c5.870929-16.213323 8.226128-32.870378 7.167995-50.073566h-43.212771c-0.921599 36.181309-17.817588 61.781292-50.756233 76.799948-3.140265-6.246396-9.147727-5.905063-14.472524-10.444793 27.613848-10.786126 43.554104-36.761575 44.305037-66.355155h-34.74771v-17.373856h118.442588m-111.274592 101.717266h108.816994v90.385006h-20.684787v-8.87466h-69.017554v10.035193h-20.036253l0.887466-91.511406m20.036254 18.431988v44.578104h68.130087V241.971721H520.192677m-51.404766 569.684954c0 34.030911-5.119997 75.878349-46.523702 101.034599a61.235159 61.235159 0 0 0-12.014925-13.585057c38.058641-20.923719 41.164773-59.426094 41.164772-87.483675V747.520184h17.373855v64.170624m-31.607445 44.475704h-16.247456v-137.557242h77.482615v136.226043h-16.964255v-120.183387h-44.509837l0.238933 121.514586m44.270904-1.331199c10.990926 12.014925 14.131191 27.818648 22.698651 41.642639l-13.994657 11.775992a277.025949 277.025949 0 0 0-28.706114-40.038373l20.00212-13.380258m132.437245-82.363679h-23.995718v115.541257c0 11.775992-2.457598 17.817588-9.79626 20.923719a83.694878 83.694878 0 0 1-34.508777 4.232531 91.101806 91.101806 0 0 0-7.338661-20.479987h25.804782l4.676264-87.244742a261.119826 261.119826 0 0 1-54.101297 77.687415 80.691146 80.691146 0 0 0-15.56479-17.169055 226.576916 226.576916 0 0 0 62.771158-93.695938h-54.54503v-19.59252h61.644759v-43.417571h21.162652v43.178638h23.825051v20.036253M163.158249 568.525104c3.993597 2.491732 8.226128 6.007463 14.677323 9.79626 18.739188 8.567461 38.331708 11.912525 58.811694 10.035193 26.999449 0 53.930631-1.604266 80.793546-4.676263-3.071998 7.167995-5.119997 14.54079-6.246395 22.254918-15.35999 0-53.657564 2.457598-75.434617 2.457598a116.599389 116.599389 0 0 1-61.678892-11.810125c-9.557327-5.802663-16.725322-12.902391-22.254919-12.902391-5.56373 0-17.373855 13.585058-27.170115 27.818648l-13.346124-19.79732c8.942927-10.30826 19.524254-18.602654 31.607445-24.917317v-59.016494h-28.296514v-19.114654H163.158249v79.871947m-9.352528-106.837262a250.4361 250.4361 0 0 0-33.791977-37.205309l14.882123-11.537059c12.561058 10.854393 24.063984 22.732785 34.474644 35.635176l-15.56479 13.107192m72.362619 61.439959a84.54821 84.54821 0 0 1-30.51518 55.637296 74.820217 74.820217 0 0 0-15.35999-14.882124 66.559956 66.559956 0 0 0 25.190384-40.755172h-27.409049v-19.797321h30.71998v-35.839976h-30.71998v-19.79732h29.593581v-33.655444h20.479986v33.860244h31.641579v-33.860244h20.479986v33.860244h27.135982v19.558387h-26.282649v35.839976h30.51518v19.831454h-30.481047v53.452764h-20.479986v-53.452764H226.16834m2.901331-33.382378v14.677323h32.051179v-36.966375h-32.085312v22.289052M912.725749 592.554954v19.182921h-189.439874v-19.182921h82.602612v-39.833573h-56.115163v-18.431988h56.081029v-31.197846H743.083195v-13.346124h-18.056521v-49.459167h85.708743c-3.106131-7.304528-6.894929-16.452256-10.00106-23.551984l20.479986-4.437331c4.881063 9.079461 9.215994 18.431988 13.107191 27.989315h75.707683v49.459167h-17.817588v13.789857h-63.897557v30.71998h58.538627v18.909854h-58.538627v39.867707h44.54397a504.59273 504.59273 0 0 0-30.958913-29.593581l14.677324-10.239993c10.71786 9.113594 25.599983 22.220785 33.177578 29.79838l-16.895989 10.035194 39.833574-0.477867m-167.184956-133.563644l-2.457598 30.71998h149.162567l-3.549864-29.798381-143.155105-0.921599z" fill="#FFFFFF" /></svg>