<?xml version="1.0" standalone="no"?><!DOCTYPE svg PUBLIC "-//W3C//DTD SVG 1.1//EN" "http://www.w3.org/Graphics/SVG/1.1/DTD/svg11.dtd"><svg class="icon" width="200px" height="200.00px" viewBox="0 0 1024 1024" version="1.1" xmlns="http://www.w3.org/2000/svg"><path d="M0 511.934943A511.934943 511.934943 0 1 0 511.934943 0 515.643202 515.643202 0 0 0 0 511.934943z" fill="#B8CDDD" /><path d="M116.062008 511.934943a395.872935 395.872935 0 1 0 395.872935-395.872935 396.198221 396.198221 0 0 0-395.872935 395.872935z" fill="#829EAF" /><path d="M907.872935 511.934943a267.970521 267.970521 0 0 0-307.2-307.134943 386.179416 386.179416 0 0 0-395.872935 389.041931 267.970521 267.970521 0 0 0 307.134943 307.134943 386.179416 386.179416 0 0 0 395.937992-389.041931z" fill="#9BB2C4" /><path d="M573.34892 505.103939V395.872935a337.906989 337.906989 0 0 1 88.737992 27.324015V348.120966a302.906226 302.906226 0 0 0-88.737992-13.662008v-47.751969h-40.986023v47.751969a113.069377 113.069377 0 0 0-81.906988 34.155019 102.660229 102.660229 0 0 0-27.324016 75.075985 87.63202 87.63202 0 0 0 27.324016 68.244981 248.648539 248.648539 0 0 0 88.737992 54.582973v102.4a258.016773 258.016773 0 0 1-116.062008-40.986023v75.141042a286.251588 286.251588 0 0 0 109.231004 27.324015v54.582974h40.986023v-61.413977a151.973571 151.973571 0 0 0 88.737992-34.155019 93.226938 93.226938 0 0 0 27.324016-75.075985 87.63202 87.63202 0 0 0-27.324016-68.244981 365.035832 365.035832 0 0 0-88.737992-40.986023z m-40.986023-13.662008c-13.662008-6.505718-20.493011-13.662008-34.155019-20.493011a61.544091 61.544091 0 0 1-6.505718-34.155019q0-30.706989 40.920966-40.986023z m40.986023 170.644981V580.179924c27.324015 13.662008 47.75197 27.324015 47.751969 47.751969a67.529352 67.529352 0 0 1-47.751969 34.155019z" fill="#8AA3B7" /><path d="M532.427954 477.779924V375.379924a193.610165 193.610165 0 0 1 88.737993 27.324015V327.627954a302.841169 302.841169 0 0 0-88.737993-13.662007v-54.582974h-40.986023v47.75197a155.68183 155.68183 0 0 0-81.906988 40.986023 97.585769 97.585769 0 0 0-34.155019 75.075984 87.63202 87.63202 0 0 0 27.324015 68.244981 248.583482 248.583482 0 0 0 88.737992 54.582974v102.4a332.5723 332.5723 0 0 1-109.231003-40.986023v74.815756a286.251588 286.251588 0 0 0 109.231003 27.324015v54.582973h40.986023v-61.413977a151.908513 151.908513 0 0 0 88.737993-34.155019 124.194155 124.194155 0 0 0 27.324015-75.075985 87.63202 87.63202 0 0 0-27.324015-68.24498 344.347649 344.347649 0 0 0-88.737993-47.491741z m-40.986023-13.662008a149.631512 149.631512 0 0 1-34.155019-20.493011c-6.505718-6.505718-6.505718-13.662008-6.505718-27.324016q0-30.706989 40.986023-40.986022z m40.986023 177.475985V559.686912q40.920966 10.213977 40.920966 40.986023t-40.920966 40.920966z" fill="#D1DEE8" /></svg>